# xmcd CD database file
#
# Track frame offsets:
#	150
#	13950
#	31599
#	51321
#	64105
#	81495
#	98810
#	119179
#	141531
#	154367
#	167129
#	181158
#	202033
#	215999
#	237684
#	258936
#	276663
#	298037
#	309532
#	325318
#
# Disc length: 4589 seconds
#
# Revision: 1
# Processed by: cddbd v1.5.2PL0 Copyright (c) Steve Scherf et al.
# Submitted via: CDex 1.51
#
DISCID=4c11eb14
DTITLE=Various Artist - ZM-IRISH-SH-CD-3
DYEAR=1900
DGENRE=Blues
TTITLE0=Pogues The - Dark Streets Of London
TTITLE1=Pogues The - Dirty Old Town
TTITLE2=Pogues The - Fiesta
TTITLE3=Pogues The - Sally MacLennane
TTITLE4=Pogues The and The Dubliners - The Irish Rover
TTITLE5=Ronan Keating - If Tomorrow Never Comes
TTITLE6=Ronan Keating - When You Say Nothing At All
TTITLE7=Sinead O'Conner - Nothing Compares To U
TTITLE8=Them ft Van Morrison - Baby Please Don't Go
TTITLE9=Them ft Van Morrison - Gloria
TTITLE10=Them ft Van Morrison - Here Comes The Night
TTITLE11=Thin Lizzy - The Boys Are Back In Town
TTITLE12=U2 - Desire
TTITLE13=U2 - Hold Me Thrill Me Kiss Me
TTITLE14=U2 - One
TTITLE15=U2 - Pride (in the name of love)
TTITLE16=U2 - With Or Without You
TTITLE17=Undertones The - Teenage Kicks
TTITLE18=Van Morisson - Brown Eyed Girl
TTITLE19=Westlife - You raise Me Up
EXTD=
EXTT0=
EXTT1=
EXTT2=
EXTT3=
EXTT4=
EXTT5=
EXTT6=
EXTT7=
EXTT8=
EXTT9=
EXTT10=
EXTT11=
EXTT12=
EXTT13=
EXTT14=
EXTT15=
EXTT16=
EXTT17=
EXTT18=
EXTT19=
PLAYORDER=
